# xmcd
#
# Track frame offsets: 
#        150
#        11009
#        20352
#        33200
#        43479
#        54673
#        65895
#        75828
#        85827
#        96577
#        105751
#        116356
#        126796
#        138182
#        148855
#        158041
#        170705
#        180941
#        191849
#        205506
#        217866
#
# Disc length: 3048 seconds
#
# Revision: 4
# Processed by: cddbd v1.5.2PL0 Copyright (c) Steve Scherf et al.
# Submitted via: ExactAudioCopy v0.99pb5
#
DISCID=180be615
DTITLE=Buck Owens - 21 #1 Hits: The Ultimate Collection
DYEAR=1963
DGENRE=Country
TTITLE0=Act Naturally
TTITLE1=Love's Gonna Live Here
TTITLE2=Streets Of Bakersfield
TTITLE3=I've Got A Tiger By The Tail
TTITLE4=My Heart Skips A Beat
TTITLE5=Together Again
TTITLE6=I Don't Care {Just As Long As You Love Me}
TTITLE7=Before You Go
TTITLE8=Only You {Can Break My Heart}
TTITLE9=Buckaroo
TTITLE10=Waitin' In Your Welfare Line
TTITLE11=Think Of Me
TTITLE12=Open Up Your Heart
TTITLE13=Where Does The Good Times Go
TTITLE14=Sam's Place
TTITLE15=Your Tender Loving Care
TTITLE16=How Long Will My Baby Be Gone
TTITLE17=Who's Gonna Mow Your Grass
TTITLE18=Tall Dark Stranger
TTITLE19=Made In Japan
TTITLE20=Johnny B. Goode
EXTD=
EXTT0=
EXTT1=
EXTT2=
EXTT3=
EXTT4=
EXTT5=
EXTT6=
EXTT7=
EXTT8=
EXTT9=
EXTT10=
EXTT11=
EXTT12=
EXTT13=
EXTT14=
EXTT15=
EXTT16=
EXTT17=
EXTT18=
EXTT19=
EXTT20=
PLAYORDER=
